<?xml version="1.0" encoding="utf-8"?>
<!-- Generator: Adobe Illustrator 18.1.0, SVG Export Plug-In . SVG Version: 6.00 Build 0)  -->
<svg version="1.1" id="Layer_1" xmlns="http://www.w3.org/2000/svg" xmlns:xlink="http://www.w3.org/1999/xlink" x="0px" y="0px"
	 viewBox="0 0 1203.5 82" enable-background="new 0 0 1203.5 82" xml:space="preserve">
<g>
	<g>
		<path fill="none" stroke="#CBB72D" stroke-width="2" stroke-linecap="round" stroke-linejoin="round" d="M-7.3,14.7
			c0.3,0.5,0.9-0.8,1-0.6c0,0-0.3,8.6-0.2,8.7c0.8,1.4,16.6-9.6,16.6-9.6s-22.1,6.3-17.8,13.8c1.3,2.3,25.4-14.7,25.4-14.7
			S-6.4,29-6.2,29.4c1.7,3,29.5-17.1,29.5-17.1l-33.5,29.1l44.5-25.7c0.6,1-43,28.7-42,30.4c13,22.5,55.1-31.8,55.1-31.8L-4,53.8
			c0,0,57.5-59.3,68.8-39.7L2.7,59.6c3.5,6,79.6-50.4,81.5-47.1c0,0-60.3,37.1-55.1,46.1c5.3,9.1,73.2-54.4,78.4-45.3
			c3.4,5.8-59.2,45.2-59.2,45.2l78.2-45.1c4.9,8.4-73.3,28.6-63.2,46l75.4-43.5c0,0-58.2,35.1-53.6,43.1L164.6,13
			c4.6,8-53,47.1-53,47.1l80.2-46.3C207.2,40.5,120.4,55,123.3,60c13.1,22.7,67.3-58.8,76-43.9c0,0-49.6,43.5-49.2,44.1L231.7,13
			c1.8,3.2-50.3,43.6-50.3,43.6C201,90.6,233.9-17.7,253,15.3c0,0-66.6,19-53.8,41.2l74.2-42.8c8.2,14.3-73.5,43.6-73.5,43.6
			l72.6-41.9c4,6.9-48.9,41.5-48.9,41.5L299,13.3L246.7,58c20.8,36.1,79.2-45.7,79.2-45.7c15.1,26.2-76.3,40.6-73.6,45.5
			c1,1.8,57-72.6,74.2-42.8c1.7,2.9-73.4,21.6-61.5,42.2c0,0,49.8-71.2,68.2-39.4c0,0-66.2,20.2-55.2,39.3c2,3.4,50.8-34.5,53-30.6
			c2.3,4-43.5,29.6-41.6,33c2.7,4.6,41.8-25.2,42.3-24.4l-24.1,24.6c0.4,0.7,20.2-15.3,21.8-12.6l-18.9,11.2
			c4.9,8.5,13.2-14.8,16.4-9.4c0,0-3.3,10-2.6,11.2c0.7,1.2,9.2-5.3,9.2-5.3c0,0-7.3,3.5-6.5,4.9c0.2,0.3,2.5-1.4,2.5-1.4"/>
	</g>
</g>
<g>
	<g>
		<path fill="none" stroke="#CBB72D" stroke-width="2" stroke-linecap="round" stroke-linejoin="round" d="M236.7,14.7
			c0.3,0.5,0.9-0.8,1-0.6c0,0-0.3,8.6-0.2,8.7c0.8,1.4,16.6-9.6,16.6-9.6s-22.1,6.3-17.8,13.8c1.3,2.3,25.4-14.7,25.4-14.7
			s-24,16.6-23.8,16.9c1.7,3,29.5-17.1,29.5-17.1l-33.5,29.1l44.5-25.7c0.6,1-43,28.7-42,30.4c13,22.5,55.1-31.8,55.1-31.8L240,53.8
			c0,0,57.5-59.3,68.8-39.7l-62.2,45.5c3.5,6,79.6-50.4,81.5-47.1c0,0-60.3,37.1-55.1,46.1c5.3,9.1,73.2-54.4,78.4-45.3
			c3.4,5.8-59.2,45.2-59.2,45.2l78.2-45.1c4.9,8.4-73.3,28.6-63.2,46l75.4-43.5c0,0-58.2,35.1-53.6,43.1L408.6,13
			c4.6,8-53,47.1-53,47.1l80.2-46.3C451.2,40.5,364.4,55,367.3,60c13.1,22.7,67.3-58.8,76-43.9c0,0-49.6,43.5-49.2,44.1L475.7,13
			c1.8,3.2-50.3,43.6-50.3,43.6C445,90.6,477.9-17.7,497,15.3c0,0-66.6,19-53.8,41.2l74.2-42.8c8.2,14.3-73.5,43.6-73.5,43.6
			l72.6-41.9c4,6.9-48.9,41.5-48.9,41.5L543,13.3L490.7,58c20.8,36.1,79.2-45.7,79.2-45.7c15.1,26.2-76.3,40.6-73.6,45.5
			c1,1.8,57-72.6,74.2-42.8c1.7,2.9-73.4,21.6-61.5,42.2c0,0,49.8-71.2,68.2-39.4c0,0-66.2,20.2-55.2,39.3c2,3.4,50.8-34.5,53-30.6
			c2.3,4-43.5,29.6-41.6,33c2.7,4.6,41.8-25.2,42.3-24.4l-24.1,24.6c0.4,0.7,20.2-15.3,21.8-12.6l-18.9,11.2
			c4.9,8.5,13.2-14.8,16.4-9.4c0,0-3.3,10-2.6,11.2c0.7,1.2,9.2-5.3,9.2-5.3c0,0-7.3,3.5-6.5,4.9c0.2,0.3,2.5-1.4,2.5-1.4"/>
	</g>
</g>
<g>
	<g>
		<path fill="none" stroke="#CBB72D" stroke-width="2" stroke-linecap="round" stroke-linejoin="round" d="M538.7,14.7
			c0.3,0.5,0.9-0.8,1-0.6c0,0-0.3,8.6-0.2,8.7c0.8,1.4,16.6-9.6,16.6-9.6s-22.1,6.3-17.8,13.8c1.3,2.3,25.4-14.7,25.4-14.7
			s-24,16.6-23.8,16.9c1.7,3,29.5-17.1,29.5-17.1l-33.5,29.1l44.5-25.7c0.6,1-43,28.7-42,30.4c13,22.5,55.1-31.8,55.1-31.8L542,53.8
			c0,0,57.5-59.3,68.8-39.7l-62.2,45.5c3.5,6,79.6-50.4,81.5-47.1c0,0-60.3,37.1-55.1,46.1c5.3,9.1,73.2-54.4,78.4-45.3
			c3.3,5.8-59.2,45.2-59.2,45.2l78.2-45.1c4.9,8.4-73.3,28.6-63.2,46l75.4-43.5c0,0-58.2,35.1-53.6,43.1L710.6,13
			c4.6,8-53,47.1-53,47.1l80.2-46.3C753.2,40.5,666.4,55,669.3,60c13.1,22.7,67.3-58.8,76-43.9c0,0-49.6,43.5-49.2,44.1L777.7,13
			c1.8,3.2-50.3,43.6-50.3,43.6C747,90.6,779.9-17.7,799,15.3c0,0-66.6,19-53.8,41.2l74.2-42.8c8.2,14.3-73.5,43.6-73.5,43.6
			l72.6-41.9c4,6.9-48.9,41.5-48.9,41.5L845,13.3L792.7,58c20.8,36.1,79.2-45.7,79.2-45.7c15.1,26.2-76.3,40.6-73.6,45.5
			c1,1.8,57-72.6,74.2-42.8c1.7,2.9-73.4,21.6-61.5,42.2c0,0,49.8-71.2,68.2-39.4c0,0-66.2,20.2-55.2,39.3c2,3.4,50.8-34.5,53-30.6
			c2.3,4-43.5,29.6-41.6,33c2.7,4.6,41.8-25.2,42.3-24.4l-24.1,24.6c0.4,0.7,20.2-15.3,21.8-12.6l-18.9,11.2
			c4.9,8.5,13.2-14.8,16.4-9.4c0,0-3.3,10-2.6,11.2c0.7,1.2,9.2-5.3,9.2-5.3c0,0-7.3,3.5-6.5,4.9c0.2,0.3,2.5-1.4,2.5-1.4"/>
	</g>
</g>
<g>
	<g>
		<path fill="none" stroke="#CBB72D" stroke-width="2" stroke-linecap="round" stroke-linejoin="round" d="M867.7,14.7
			c0.3,0.5,0.9-0.8,1-0.6c0,0-0.3,8.6-0.2,8.7c0.8,1.4,16.6-9.6,16.6-9.6s-22.1,6.3-17.8,13.8c1.3,2.3,25.4-14.7,25.4-14.7
			s-24,16.6-23.8,16.9c1.7,3,29.5-17.1,29.5-17.1l-33.5,29.1l44.5-25.7c0.6,1-43,28.7-42,30.4c13,22.5,55.1-31.8,55.1-31.8L871,53.8
			c0,0,57.5-59.3,68.8-39.7l-62.2,45.5c3.5,6,79.6-50.4,81.5-47.1c0,0-60.3,37.1-55.1,46.1c5.3,9.1,73.2-54.4,78.4-45.3
			c3.4,5.8-59.2,45.2-59.2,45.2l78.2-45.1c4.9,8.4-73.3,28.6-63.2,46l75.4-43.5c0,0-58.2,35.1-53.6,43.1l79.5-45.9
			c4.6,8-53,47.1-53,47.1l80.2-46.3c15.4,26.7-71.3,41.2-68.5,46.2c13.1,22.7,67.3-58.8,76-43.9c0,0-49.6,43.5-49.2,44.1l81.6-47.1
			c1.8,3.2-50.3,43.6-50.3,43.6c19.6,33.9,52.5-74.4,71.6-41.3c0,0-66.6,19-53.8,41.2l74.2-42.8c8.2,14.3-73.5,43.6-73.5,43.6
			l72.6-41.9c4,6.9-48.9,41.5-48.9,41.5l75.4-43.5L1121.7,58c20.8,36.1,79.2-45.7,79.2-45.7c15.1,26.2-76.3,40.6-73.6,45.5
			c1,1.8,57-72.6,74.2-42.8c1.7,2.9-73.4,21.6-61.5,42.2c0,0,49.8-71.2,68.2-39.4c0,0-66.2,20.2-55.2,39.3c2,3.4,50.8-34.5,53-30.6
			c2.3,4-43.5,29.6-41.6,33c2.7,4.6,41.8-25.2,42.3-24.4l-24.1,24.6c0.4,0.7,20.2-15.3,21.8-12.6l-18.9,11.2
			c4.9,8.5,13.2-14.8,16.4-9.4c0,0-3.3,10-2.6,11.2c0.7,1.2,9.2-5.3,9.2-5.3c0,0-7.3,3.5-6.5,4.9c0.2,0.3,2.5-1.4,2.5-1.4"/>
	</g>
</g>
</svg>
