<?xml version="1.0" encoding="utf-8"?>
<!-- Generator: Adobe Illustrator 18.1.0, SVG Export Plug-In . SVG Version: 6.00 Build 0)  -->
<svg version="1.1" id="Layer_1" xmlns="http://www.w3.org/2000/svg" xmlns:xlink="http://www.w3.org/1999/xlink" x="0px" y="0px"
	 viewBox="0 0 3000 1000" enable-background="new 0 0 3000 1000" xml:space="preserve">
<polygon fill="none" stroke="#DDB826" stroke-width="3" stroke-miterlimit="10" points="2438.7,623 2361.8,490 2438.7,357 
	2592.6,357 2669.6,490 2592.6,623 "/>
<polygon fill="#FFFFFF" stroke="#BDBEC0" stroke-width="3" stroke-miterlimit="10" points="2670.3,518 2630.5,450.5 2670.3,383 
	2749.9,383 2789.7,450.5 2749.9,518 "/>
<polygon fill="none" stroke="#8AAEB2" stroke-width="3" stroke-miterlimit="10" points="2606.9,594 2584.4,556 2606.9,518 
	2651.9,518 2674.4,556 2651.9,594 "/>
<polygon fill="#8AAEB2" points="2615.4,599.5 2601.7,574 2615.4,548.5 2642.9,548.5 2656.6,574 2642.9,599.5 "/>
<polygon fill="#F7F4DF" points="2817.9,458.5 2771.7,379 2817.9,299.5 2910.3,299.5 2956.5,379 2910.3,458.5 "/>
<polygon fill="#BDBEC0" stroke="#FFFFFF" stroke-width="3" stroke-miterlimit="10" points="2890.7,492 2864.1,448 2890.7,404 
	2943.8,404 2970.3,448 2943.8,492 "/>
</svg>
