<?xml version="1.0" encoding="utf-8"?>
<!-- Generator: Adobe Illustrator 18.1.0, SVG Export Plug-In . SVG Version: 6.00 Build 0)  -->
<svg version="1.1" id="Layer_1" xmlns="http://www.w3.org/2000/svg" xmlns:xlink="http://www.w3.org/1999/xlink" x="0px" y="0px"
	 viewBox="0 0 886 40" enable-background="new 0 0 886 40" xml:space="preserve">
<g>
	<g>
		<g>
			<path fill="none" stroke="#DDB826" stroke-linecap="round" stroke-linejoin="round" d="M2.2,18c0,0.1,0.7-0.5,0.7-0.4
				c0.2,0.3-0.7,2.7-0.5,3c0.4,0.6,1.8-1.9,2.2-1.3c0.1,0.2,1.1,1.2,1.2,1.4C6.2,21.4,7.7,19,8,19.6c0.1,0.2-1.4,1.6-1.3,1.8
				c0.3,0.6,1.8-1.9,2.1-1.2c0.3,0.6-4.8,2.9-4.4,3.5c0.4,0.6,7.4-5.1,7.7-4.5c0.1,0.2-1.2,1.6-1.1,1.8c0.4,0.6,0.1-0.9,0.5-0.3
				c0.6,1,8.8,0,9.4,1c0.4,0.6,6.8-4.8,7.2-4.1c0.4,0.6,3.1,4.3,3.4,5c0.4,0.6,4.5-3.4,4.8-2.8c0.2,0.4,3.3,1.3,3.5,1.7
				c0.4,0.6,1.3-1.6,1.7-1c0.5,0.9,8.4,0.9,9,1.8c0.4,0.6,5.1-3.8,5.5-3.2c0.4,0.6,4.7,2.1,5.1,2.8c0.4,0.6,3.6-2.9,4-2.3
				c0.2,0.3,2,1.8,2.2,2.1c0.4,0.6,6.8-4.7,7.1-4.1c0.5,0.8-4.7,5.2-4.3,6c0.4,0.6,6.9-4.8,7.2-4.2c0.3,0.5,4.5,1.3,4.8,1.8
				c0.3,0.6,5.4-4,5.8-3.3c0.3,0.6-0.4,4.9-0.1,5.5c0.4,0.6,6.5-4.6,6.9-4c0.4,0.7,5.9,2.4,6.3,3.1c0.4,0.6,7.5-5.2,7.8-4.5
				c0.5,0.9-7.6,4.2-7,5.1c0.4,0.6,6-4.3,6.4-3.7c0.2,0.4,3.1,1.5,3.3,1.9c0.4,0.6,4.6-3.5,5-2.9c0.4,0.7,4.9,3.1,5.3,3.8
				c0.3,0.6,4.3-3.3,4.6-2.7c0.1,0.2,1.4,1.5,1.5,1.7c0.4,0.6,4.8-3.5,5.1-2.9c0.2,0.4,1,2.9,1.2,3.3c0.3,0.6,4.2-3.3,4.5-2.6
				c0.3,0.5-3.9,2.2-3.6,2.7c0.3,0.6,6.3-4.5,6.6-3.8c0.3,0.6,4,3.1,4.3,3.7c0.4,0.6,4.6-3.5,5-2.9c0.3,0.6,2.1,4.1,2.4,4.6
				c0.4,0.6,6.3-4.5,6.6-3.8c0.4,0.7,5.8,0.5,6.2,1.2c0.3,0.6-0.3-0.7,0,0c0.3,0.4,3.8,0,4,0.5c0.3,0.6,3.3-2.7,3.6-2.1
				c0.2,0.3-0.5,2.5-0.3,2.8c0.4,0.6,3.9-3.1,4.2-2.4c0.2,0.3-2.8,1.3-2.6,1.6c0.3,0.6,4.8-3.6,5.1-3c0.5,0.9-7.4,4.3-6.8,5.2
				c0.4,0.6,5.4-3.9,5.7-3.3c0.5,0.9,8,0.6,8.5,1.5c0.4,0.6,5-3.7,5.3-3.1c0.3,0.5,2.4,4,2.8,4.6c0.3,0.6,6-4.3,6.4-3.7
				c0.3,0.6,3.4,3.4,3.7,3.9c0.4,0.6,6.3-4.5,6.7-3.8c0.4,0.8-6.4,3.2-6,3.9c0.3,0.6,9.6-6.4,10-5.8c0.3,0.6-4.5,2.7-4.2,3.3
				c0.4,0.6,1.7-1.8,2.1-1.2c0.4,0.6,5,1.9,5.4,2.6c0.4,0.6,3.8-3,4.2-2.4c0.3,0.5-4.4,2.5-4.1,3c0.4,0.6,8.4-5.6,8.7-5
				c0.3,0.5,1.5,4.3,1.8,4.8c0.4,0.6,4.7-3.5,5.1-2.9c0.2,0.4-1.1,2.9-0.9,3.2c0.4,0.6,7.5-5.2,7.9-4.6c0.4,0.7,4.5,3.6,4.9,4.3
				c0.4,0.6,7.6-5.2,8-4.6c0.4,0.7,5.3,3.1,5.7,3.8c0.4,0.6,3.2-2.7,3.6-2.1c0.2,0.3,1.8,1.8,1.9,2.1c0.4,0.6,2.5-2.3,2.9-1.6
				c0.1,0.2-1.8,1.2-1.7,1.4c0.4,0.6,1.4-1.6,1.7-1c0.3,0.6-5.2,2.4-4.8,2.9c0.4,0.6,5.8-4.2,6.2-3.6c0.2,0.4,0.4,3.1,0.6,3.5
				c0.4,0.6,4.9-3.7,5.3-3.1c0.4,0.7,6.4,0.2,6.9,0.9c0.3,0.6,3.3-2.7,3.7-2.1c0.3,0.6,4.5,1.8,4.9,2.4c0.4,0.6,3.5-2.9,3.9-2.3
				c0.3,0.6,3.5,3.5,3.9,4.1c0.3,0.6,4.9-3.6,5.2-3c0.4,0.8,6.8-0.5,7.2,0.3c0.3,0.6,0.8-1.3,1.1-0.6c0.2,0.4,3.3,1.2,3.5,1.6
				c0.4,0.6,6.1-4.3,6.5-3.7c0.2,0.4,0,3.6,0.2,4c0,0.1,0.5-0.3,0.5-0.3"/>
		</g>
	</g>
</g>
</svg>
