<?xml version="1.0" encoding="utf-8"?>
<!-- Generator: Adobe Illustrator 18.1.0, SVG Export Plug-In . SVG Version: 6.00 Build 0)  -->
<svg version="1.1" id="Layer_1" xmlns="http://www.w3.org/2000/svg" xmlns:xlink="http://www.w3.org/1999/xlink" x="0px" y="0px"
	 viewBox="0 380 612 45" enable-background="new 0 380 612 45" xml:space="preserve">
<g>
	<g>
		<g>
			<path fill="none" stroke="#48A5AA" stroke-linecap="round" stroke-linejoin="round" d="M1.5,394.6c0,0.1,0.5-0.3,0.5-0.3
				c0.1,0.2-0.5,1.9-0.3,2.1c0.3,0.4,1.2-1.3,1.5-0.9c0.1,0.1,0.8,0.8,0.8,1c0.3,0.5,1.3-1.2,1.5-0.8c0.1,0.1-1,1.1-0.9,1.2
				c0.2,0.4,1.2-1.3,1.5-0.8c0.2,0.4-3.3,2-3,2.4c0.3,0.4,5.1-3.5,5.3-3.1c0.1,0.1-0.8,1.1-0.8,1.2c0.3,0.4,0.1-0.6,0.3-0.2
				c0.4,0.7,6.1,0,6.5,0.7c0.3,0.4,4.7-3.3,5-2.8c0.3,0.4,2.1,3,2.3,3.5c0.3,0.4,3.1-2.3,3.3-1.9c0.1,0.3,2.3,0.9,2.4,1.2
				c0.3,0.4,0.9-1.1,1.2-0.7c0.3,0.6,5.8,0.6,6.2,1.2c0.3,0.4,3.5-2.6,3.8-2.2c0.3,0.4,3.2,1.5,3.5,1.9c0.3,0.4,2.5-2,2.8-1.6
				c0.1,0.2,1.4,1.2,1.5,1.5c0.3,0.4,4.7-3.2,4.9-2.8c0.3,0.6-3.2,3.6-3,4.1c0.3,0.4,4.8-3.3,5-2.9c0.2,0.3,3.1,0.9,3.3,1.2
				c0.2,0.4,3.7-2.8,4-2.3c0.2,0.4-0.3,3.4-0.1,3.8c0.3,0.4,4.5-3.2,4.8-2.8c0.3,0.5,4.1,1.7,4.4,2.1c0.3,0.4,5.2-3.6,5.4-3.1
				c0.3,0.6-5.2,2.9-4.8,3.5c0.3,0.4,4.1-3,4.4-2.6c0.1,0.3,2.1,1,2.3,1.3c0.3,0.4,3.2-2.4,3.5-2c0.3,0.5,3.4,2.1,3.7,2.6
				c0.2,0.4,3-2.3,3.2-1.9c0.1,0.1,1,1,1,1.2c0.3,0.4,3.3-2.4,3.5-2c0.1,0.3,0.7,2,0.8,2.3c0.2,0.4,2.9-2.3,3.1-1.8
				c0.2,0.3-2.7,1.5-2.5,1.9c0.2,0.4,4.4-3.1,4.6-2.6c0.2,0.4,2.8,2.1,3,2.6c0.3,0.4,3.2-2.4,3.5-2c0.2,0.4,1.5,2.8,1.7,3.2
				c0.3,0.4,4.4-3.1,4.6-2.6c0.3,0.5,4,0.3,4.3,0.8c0.2,0.4-0.2-0.5,0,0c0.2,0.3,2.6,0,2.8,0.3c0.2,0.4,2.3-1.9,2.5-1.5
				c0.1,0.2-0.3,1.7-0.2,1.9c0.3,0.4,2.7-2.1,2.9-1.7c0.1,0.2-1.9,0.9-1.8,1.1c0.2,0.4,3.3-2.5,3.5-2.1c0.3,0.6-5.1,3-4.7,3.6
				c0.3,0.4,3.7-2.7,3.9-2.3c0.3,0.6,5.5,0.4,5.9,1c0.3,0.4,3.5-2.6,3.7-2.1c0.2,0.3,1.7,2.8,1.9,3.2c0.2,0.4,4.1-3,4.4-2.6
				c0.2,0.4,2.3,2.3,2.6,2.7c0.3,0.4,4.4-3.1,4.6-2.6c0.3,0.6-4.4,2.2-4.1,2.7c0.2,0.4,6.6-4.4,6.9-4c0.2,0.4-3.1,1.9-2.9,2.3
				c0.3,0.4,1.2-1.2,1.5-0.8c0.3,0.4,3.5,1.3,3.7,1.8c0.3,0.4,2.6-2.1,2.9-1.7c0.2,0.3-3,1.7-2.8,2.1c0.3,0.4,5.8-3.9,6-3.5
				c0.2,0.3,1,3,1.2,3.3c0.3,0.4,3.2-2.4,3.5-2c0.1,0.3-0.8,2-0.6,2.2c0.3,0.4,5.2-3.6,5.5-3.2c0.3,0.5,3.1,2.5,3.4,3
				c0.3,0.4,5.2-3.6,5.5-3.2c0.3,0.5,3.7,2.1,3.9,2.6c0.3,0.4,2.2-1.9,2.5-1.5c0.1,0.2,1.2,1.2,1.3,1.5c0.3,0.4,1.7-1.6,2-1.1
				c0.1,0.1-1.2,0.8-1.2,1c0.3,0.4,1-1.1,1.2-0.7c0.2,0.4-3.6,1.7-3.3,2c0.3,0.4,4-2.9,4.3-2.5c0.1,0.3,0.3,2.1,0.4,2.4
				c0.3,0.4,3.4-2.6,3.7-2.1c0.3,0.5,4.4,0.1,4.8,0.6c0.2,0.4,2.3-1.9,2.6-1.5c0.2,0.4,3.1,1.2,3.4,1.7s2.4-2,2.7-1.6
				c0.2,0.4,2.4,2.4,2.7,2.8c0.2,0.4,3.4-2.5,3.6-2.1c0.3,0.6,4.7-0.3,5,0.2c0.2,0.4,0.6-0.9,0.8-0.4c0.1,0.3,2.3,0.8,2.4,1.1
				c0.3,0.4,4.2-3,4.5-2.6c0.1,0.3,0,2.5,0.1,2.8c0,0.1,0.3-0.2,0.3-0.2"/>
		</g>
	</g>
</g>
</svg>
