<?xml version="1.0" encoding="utf-8"?>
<!-- Generator: Adobe Illustrator 18.1.0, SVG Export Plug-In . SVG Version: 6.00 Build 0)  -->
<svg version="1.1" id="Layer_1" xmlns="http://www.w3.org/2000/svg" xmlns:xlink="http://www.w3.org/1999/xlink" x="0px" y="0px"
	 viewBox="0 0 44.6 1207.9" enable-background="new 0 0 44.6 1207.9" xml:space="preserve">
<g>
	<g>
		<path fill="none" stroke="#DDB826" stroke-width="0.72" stroke-linecap="round" stroke-linejoin="round" d="M-6.1-0.1
			C-6,0.1-5.8-0.3-5.8-0.3c0,0,0.3,8.2,0.4,8.4c0.8,1.3,16-9.2,16-9.2S-10.8,5.1-6.6,12.4c1.3,2.2,24.8-14.3,24.8-14.3
			S-5.2,14.3-5,14.6c1.7,2.9,28.9-16.7,28.9-16.7L-8.9,26.6L35,1.3c0.6,1-42.4,28.4-41.4,30.1c10.4,18,44-25.4,44-25.4L-2.8,39
			c0,0,33.9-35.6,40.9-23.6L-8.5,51.9c2,3.5,48.1-30.3,49.2-28.4c0,0-52.1,33.8-47.6,41.7c3,5.2,43.1-31.9,46.1-26.6
			c2.7,4.6-46,37.5-46,37.5l45.9-26.5C43,56.1-16,73.2-8.2,86.6l43.1-24.9c0,0-46,30-42.3,36.5L39.8,71c4.4,7.5-49.2,44.9-49.2,44.9
			l47.9-27.7c10.9,18.9-49.7,30.7-47.7,34.1c7.6,13.1,38.7-33.8,43.7-25.2c0,0-44.4,40.6-44.1,41.1l49.4-28.5
			c1.6,2.8-43.3,39.6-43.3,39.6c11.3,19.6,28.3-41.8,39.3-22.7c0,0-48.7,16-39.1,32.7l41.9-24.2c4.9,8.5-43.3,26.2-43.3,26.2
			l40.3-23.3c3.3,5.7-39.5,36.1-39.5,36.1l43.2-24.9l-45.1,40.5c12,20.8,46.9-27.1,46.9-27.1c9.7,16.7-48.2,26.7-46.5,29.8
			c0.6,1,32-41.4,41.9-24.2c1.1,2-48.9,16.2-40.8,30.3c0,0,33-46.9,45.1-26c0,0-54.1,17.6-44.9,33.4c1.6,2.8,41-27.9,42.8-24.7
			c2.6,4.5-49.2,32.3-47,36.1c3,5.3,47.2-28.5,47.7-27.5l-48,38.3c0.9,1.5,42.2-32.3,45.6-26.4L-6.2,227
			c10.9,18.9,33.7-35.5,40.7-23.5c0,0-47,29.3-43.7,34.9c10.2,17.7,50.3-29,50.3-29c0.1,0.1-55.3,21.7-49.5,31.7
			c7.6,13.1,45.5-26.3,45.5-26.3s-52.3,16.1-42.8,32.6c10,17.3,35.2-45.9,46.3-26.7c13.6,23.5-58.2,14.2-46.1,35.1
			c9.3,16,38.1-41.9,46.7-27c0,0-55.4,22.6-46,39c10.2,17.6,43.1-24.9,43.1-24.9c5.2,9-47.6,28.5-47.6,28.5L40,242.8
			c2.5,4.4-54.7,30.6-48,42.3c0,0,38.4-37,44.8-25.9c1.2,2-49.8,27.3-43.6,38c8.4,14.5,43.3-25.6,43.6-25.2
			c14.3,24.7-52.5,27.7-46.3,38.5c4,6.9,45.6-26.4,45.6-26.4c2.4,4.1-44.4,25.4-39,34.8c6.5,11.2,33.1-40.8,42.5-24.5
			c0,0-49.6,23.2-44.2,32.6c0,0,29.7-40,39.6-22.9c0.6,1.1-41.8,17.5-31.9,34.8c8.3,14.5,36.3-21,36.3-21s-14.5,12.9-11.7,17.8
			l8.8-5.1l-3,8.3l7.2-4.1c0.9,1.6-6,1.3-4.9,3.4l4.1-2.4"/>
	</g>
</g>
<g>
	<g>
		<path fill="none" stroke="#DDB826" stroke-width="0.72" stroke-linecap="round" stroke-linejoin="round" d="M-6.1,243.9
			c0.1,0.2,0.3-0.3,0.4-0.2c0,0,0.3,8.2,0.4,8.4c0.8,1.3,16-9.2,16-9.2s-21.4,6.2-17.2,13.5c1.3,2.2,24.8-14.3,24.8-14.3
			S-5.2,258.3-5,258.6c1.7,2.9,28.9-16.7,28.9-16.7l-32.9,28.7L35,245.3c0.6,1-42.4,28.4-41.4,30.1c10.4,18,44-25.4,44-25.4
			L-2.8,283c0,0,33.9-35.6,40.9-23.6l-46.6,36.5c2,3.5,48.1-30.3,49.2-28.4c0,0-52.1,33.8-47.6,41.7c3,5.2,43.1-31.9,46.1-26.6
			c2.7,4.6-46,37.5-46,37.5l45.9-26.5c3.7,6.5-55.2,23.5-47.4,36.9l43.1-24.9c0,0-46,30-42.3,36.5L39.8,315
			c4.4,7.5-49.2,44.9-49.2,44.9l47.9-27.7c10.9,18.9-49.7,30.7-47.7,34.1c7.6,13.1,38.7-33.8,43.7-25.2c0,0-44.4,40.6-44.1,41.1
			l49.4-28.5c1.6,2.8-43.3,39.6-43.3,39.6c11.3,19.6,28.3-41.8,39.3-22.7c0,0-48.7,16-39.1,32.7l41.9-24.2
			c4.9,8.5-43.3,26.2-43.3,26.2l40.3-23.3c3.3,5.7-39.5,36.1-39.5,36.1l43.2-24.9l-45.1,40.5c12,20.8,46.9-27.1,46.9-27.1
			c9.7,16.7-48.2,26.7-46.5,29.8c0.6,1,32-41.4,41.9-24.2c1.1,2-48.9,16.2-40.8,30.3c0,0,33-46.9,45.1-26c0,0-54.1,17.6-44.9,33.4
			c1.6,2.8,41-27.9,42.8-24.7c2.6,4.5-49.2,32.3-47,36.1c3,5.3,47.2-28.5,47.7-27.5l-48,38.3c0.9,1.5,42.2-32.3,45.6-26.4L-6.2,471
			c10.9,18.9,33.7-35.5,40.7-23.5c0,0-47,29.3-43.7,34.9c10.2,17.7,50.3-29,50.3-29c0.1,0.1-55.3,21.7-49.5,31.7
			c7.6,13.1,45.5-26.3,45.5-26.3s-52.3,16.1-42.8,32.6c10,17.3,35.2-45.9,46.3-26.7c13.6,23.5-58.2,14.2-46.1,35.1
			c9.3,16,38.1-41.9,46.7-27c0,0-55.4,22.6-46,39c10.2,17.6,43.1-24.9,43.1-24.9c5.2,9-47.6,28.5-47.6,28.5L40,486.8
			c2.5,4.4-54.7,30.6-48,42.3c0,0,38.4-37,44.8-25.9c1.2,2-49.8,27.3-43.6,38c8.4,14.5,43.3-25.6,43.6-25.2
			c14.3,24.7-52.5,27.7-46.3,38.5c4,6.9,45.6-26.4,45.6-26.4c2.4,4.1-44.4,25.4-39,34.8c6.5,11.2,33.1-40.8,42.5-24.5
			c0,0-49.6,23.2-44.2,32.6c0,0,29.7-40,39.6-22.9c0.6,1.1-41.8,17.5-31.9,34.8c8.3,14.5,36.3-21,36.3-21s-14.5,12.9-11.7,17.8
			l8.8-5.1l-3,8.3l7.2-4.1c0.9,1.6-6,1.3-4.9,3.4l4.1-2.4"/>
	</g>
</g>
<g>
	<g>
		<path fill="none" stroke="#DDB826" stroke-width="0.72" stroke-linecap="round" stroke-linejoin="round" d="M-6.1,545.9
			c0.1,0.2,0.3-0.3,0.4-0.2c0,0,0.3,8.2,0.4,8.4c0.8,1.3,16-9.2,16-9.2s-21.4,6.2-17.2,13.5c1.3,2.2,24.8-14.3,24.8-14.3
			S-5.2,560.3-5,560.6c1.7,2.9,28.9-16.7,28.9-16.7l-32.9,28.7L35,547.3c0.6,1-42.4,28.4-41.4,30.1c10.4,18,44-25.4,44-25.4
			L-2.8,585c0,0,33.9-35.6,40.9-23.6l-46.6,36.5c2,3.5,48.1-30.3,49.2-28.4c0,0-52.1,33.8-47.6,41.7c3,5.2,43.1-31.9,46.1-26.6
			c2.7,4.6-46,37.5-46,37.5l45.9-26.5c3.7,6.5-55.2,23.5-47.4,36.9l43.1-24.9c0,0-46,30-42.3,36.5L39.8,617
			c4.4,7.5-49.2,44.9-49.2,44.9l47.9-27.7c10.9,18.9-49.7,30.7-47.7,34.1c7.6,13.1,38.7-33.8,43.7-25.2c0,0-44.4,40.6-44.1,41.1
			l49.4-28.5c1.6,2.8-43.3,39.6-43.3,39.6c11.3,19.6,28.3-41.8,39.3-22.7c0,0-48.7,16-39.1,32.7l41.9-24.2
			c4.9,8.5-43.3,26.2-43.3,26.2l40.3-23.3c3.3,5.7-39.5,36.1-39.5,36.1l43.2-24.9l-45.1,40.5c12,20.8,46.9-27.1,46.9-27.1
			c9.7,16.7-48.2,26.7-46.5,29.8c0.6,1,32-41.4,41.9-24.2c1.1,2-48.9,16.2-40.8,30.3c0,0,33-46.9,45.1-26c0,0-54.1,17.6-44.9,33.4
			c1.6,2.8,41-27.9,42.8-24.7c2.6,4.5-49.2,32.3-47,36.1c3,5.3,47.2-28.5,47.7-27.5l-48,38.3c0.9,1.5,42.2-32.3,45.6-26.4L-6.2,773
			c10.9,18.9,33.7-35.5,40.7-23.5c0,0-47,29.3-43.7,34.9c10.2,17.7,50.3-29,50.3-29c0.1,0.1-55.3,21.7-49.5,31.7
			c7.6,13.1,45.5-26.3,45.5-26.3s-52.3,16.1-42.8,32.6c10,17.3,35.2-45.9,46.3-26.7c13.6,23.5-58.2,14.2-46.1,35.1
			c9.3,16,38.1-41.9,46.7-27c0,0-55.4,22.6-46,39c10.2,17.6,43.1-24.9,43.1-24.9c5.2,9-47.6,28.5-47.6,28.5L40,788.8
			c2.5,4.4-54.7,30.6-48,42.3c0,0,38.4-37,44.8-25.9c1.2,2-49.8,27.3-43.6,38c8.4,14.5,43.3-25.6,43.6-25.2
			c14.3,24.7-52.5,27.7-46.3,38.5c4,6.9,45.6-26.4,45.6-26.4c2.4,4.1-44.4,25.4-39,34.8c6.5,11.2,33.1-40.8,42.5-24.5
			c0,0-49.6,23.2-44.2,32.6c0,0,29.7-40,39.6-22.9c0.6,1.1-41.8,17.5-31.9,34.8c8.3,14.5,36.3-21,36.3-21s-14.5,12.9-11.7,17.8
			l8.8-5.1l-3,8.3l7.2-4.1c0.9,1.6-6,1.3-4.9,3.4l4.1-2.4"/>
	</g>
</g>
<g>
	<g>
		<path fill="none" stroke="#DDB826" stroke-width="0.72" stroke-linecap="round" stroke-linejoin="round" d="M-6.1,874.9
			c0.1,0.2,0.3-0.3,0.4-0.2c0,0,0.3,8.2,0.4,8.4c0.8,1.3,16-9.2,16-9.2s-21.4,6.2-17.2,13.5c1.3,2.2,24.8-14.3,24.8-14.3
			S-5.2,889.3-5,889.6c1.7,2.9,28.9-16.7,28.9-16.7l-32.9,28.7L35,876.3c0.6,1-42.4,28.4-41.4,30.1c10.4,18,44-25.4,44-25.4
			L-2.8,914c0,0,33.9-35.6,40.9-23.6l-46.6,36.5c2,3.5,48.1-30.3,49.2-28.4c0,0-52.1,33.8-47.6,41.7c3,5.2,43.1-31.9,46.1-26.6
			c2.7,4.6-46,37.5-46,37.5l45.9-26.5c3.7,6.5-55.2,23.5-47.4,36.9l43.1-24.9c0,0-46,30-42.3,36.5L39.8,946
			c4.4,7.5-49.2,44.9-49.2,44.9l47.9-27.7c10.9,18.9-49.7,30.7-47.7,34.1c7.6,13.1,38.7-33.8,43.7-25.2c0,0-44.4,40.6-44.1,41.1
			l49.4-28.5c1.6,2.8-43.3,39.6-43.3,39.6c11.3,19.6,28.3-41.8,39.3-22.7c0,0-48.7,16-39.1,32.7l41.9-24.2
			c4.9,8.5-43.3,26.2-43.3,26.2l40.3-23.3c3.3,5.7-39.5,36.1-39.5,36.1l43.2-24.9l-45.1,40.5c12,20.8,46.9-27.1,46.9-27.1
			c9.7,16.7-48.2,26.7-46.5,29.8c0.6,1,32-41.4,41.9-24.2c1.1,2-48.9,16.2-40.8,30.3c0,0,33-46.9,45.1-26c0,0-54.1,17.6-44.9,33.4
			c1.6,2.8,41-27.9,42.8-24.7c2.6,4.5-49.2,32.3-47,36.1c3,5.3,47.2-28.5,47.7-27.5l-48,38.3c0.9,1.5,42.2-32.3,45.6-26.4L-6.2,1102
			c10.9,18.9,33.7-35.5,40.7-23.5c0,0-47,29.3-43.7,34.9c10.2,17.7,50.3-29,50.3-29c0.1,0.1-55.3,21.7-49.5,31.7
			c7.6,13.1,45.5-26.3,45.5-26.3s-52.3,16.1-42.8,32.6c10,17.3,35.2-45.9,46.3-26.7c13.6,23.5-58.2,14.2-46.1,35.1
			c9.3,16,38.1-41.9,46.7-27c0,0-55.4,22.6-46,39c10.2,17.6,43.1-24.9,43.1-24.9c5.2,9-47.6,28.5-47.6,28.5l49.3-28.5
			c2.5,4.4-54.7,30.6-48,42.3c0,0,38.4-37,44.8-25.9c1.2,2-49.8,27.3-43.6,38c8.4,14.5,43.3-25.6,43.6-25.2
			c14.3,24.7-52.5,27.7-46.3,38.5c4,6.9,45.6-26.4,45.6-26.4c2.4,4.1-44.4,25.4-39,34.8c6.5,11.2,33.1-40.8,42.5-24.5
			c0,0-49.6,23.2-44.2,32.6c0,0,29.7-40,39.6-22.9c0.6,1.1-41.8,17.5-31.9,34.8c8.3,14.5,36.3-21,36.3-21s-14.5,12.9-11.7,17.8
			l8.8-5.1l-3,8.3l7.2-4.1c0.9,1.6-6,1.3-4.9,3.4l4.1-2.4"/>
	</g>
</g>
</svg>
